<svg xmlns="http://www.w3.org/2000/svg" width="18.204" height="14.794" viewBox="0 0 18.204 14.794">
  <path id="iconmonstr-twitter-1" d="M18.2,4a7.456,7.456,0,0,1-2.145.588A3.741,3.741,0,0,0,17.7,2.521a7.481,7.481,0,0,1-2.372.906A3.737,3.737,0,0,0,8.965,6.833a10.6,10.6,0,0,1-7.7-3.9A3.74,3.74,0,0,0,2.423,7.918,3.719,3.719,0,0,1,.732,7.45a3.737,3.737,0,0,0,3,3.709,3.743,3.743,0,0,1-1.687.064,3.737,3.737,0,0,0,3.489,2.593A7.509,7.509,0,0,1,0,15.364a10.573,10.573,0,0,0,5.725,1.678A10.562,10.562,0,0,0,16.34,5.933,7.6,7.6,0,0,0,18.2,4Z" transform="translate(0 -2.248)" fill="#e0e0e0"/>
</svg>
