<svg xmlns="http://www.w3.org/2000/svg" width="25.96" height="26.174" viewBox="0 0 25.96 26.174">
  <g id="ico_cart" transform="translate(-7 -6)">
    <path id="Path_1" data-name="Path 1" d="M25,77.708A2.708,2.708,0,1,0,27.708,75,2.711,2.711,0,0,0,25,77.708Zm3.61,0a.9.9,0,1,1-.9-.9A.9.9,0,0,1,28.61,77.708Z" transform="translate(-12.585 -48.242)" fill="#fff"/>
    <path id="Path_2" data-name="Path 2" d="M63.708,75a2.708,2.708,0,1,0,2.708,2.708A2.711,2.711,0,0,0,63.708,75Zm0,3.61a.9.9,0,1,1,.9-.9A.9.9,0,0,1,63.708,78.61Z" transform="translate(-37.754 -48.242)" fill="#fff"/>
    <path id="Path_3" data-name="Path 3" d="M9.8,7.805c1.233,11.71.11,1.039,1.55,14.724a2.7,2.7,0,0,0,2.693,2.424H28.1a2.721,2.721,0,0,0,2.648-2.141L32.92,12.7a1.806,1.806,0,0,0-1.765-2.182H11.9l-.39-3.7A.9.9,0,0,0,10.61,6H7.9a.9.9,0,0,0,0,1.805Zm21.358,4.513L28.987,22.435a.908.908,0,0,1-.883.713H14.04a.9.9,0,0,1-.9-.808L12.087,12.318Z" fill="#fff"/>
  </g>
</svg>
