<svg xmlns="http://www.w3.org/2000/svg" width="15.793" height="15.794" viewBox="0 0 15.793 15.794">
  <path id="iconmonstr-instagram-11" d="M7.9,1.423c2.108,0,2.358.008,3.192.046,2.14.1,3.14,1.113,3.237,3.237.038.832.045,1.083.045,3.191s-.008,2.358-.045,3.191c-.1,2.122-1.1,3.14-3.237,3.237-.833.038-1.082.046-3.192.046s-2.358-.008-3.191-.046c-2.145-.1-3.14-1.118-3.237-3.238-.038-.832-.046-1.082-.046-3.191s.009-2.358.046-3.191c.1-2.124,1.1-3.14,3.237-3.237.833-.038,1.083-.045,3.191-.045ZM7.9,0C5.752,0,5.484.009,4.641.047,1.773.179.18,1.77.048,4.641.009,5.484,0,5.752,0,7.9s.009,2.414.047,3.256c.132,2.868,1.723,4.462,4.593,4.593.843.038,1.111.047,3.256.047s2.414-.009,3.256-.047c2.865-.132,4.463-1.723,4.593-4.593.039-.842.048-1.111.048-3.256s-.009-2.413-.047-3.255C15.617,1.776,14.024.18,11.154.048,10.311.009,10.041,0,7.9,0Zm0,3.842A4.055,4.055,0,1,0,11.952,7.9,4.055,4.055,0,0,0,7.9,3.842Zm0,6.687A2.632,2.632,0,1,1,10.529,7.9,2.632,2.632,0,0,1,7.9,10.529Zm4.216-7.795a.948.948,0,1,0,.947.948A.948.948,0,0,0,12.112,2.734Z" fill="#e0e0e0"/>
</svg>
