<svg xmlns="http://www.w3.org/2000/svg" viewBox="0 0 347.37 259.45"><defs><style>.cls-1{fill:#bfb35a;}</style></defs><g id="Layer_2" data-name="Layer 2"><g id="Capa_1" data-name="Capa 1"><path class="cls-1" d="M58.85,214.77c1.75,1.14,1.92,1.38.9,3.33L55,227.25c-1,1.95-1.26,2-3.46,1.09l-.34.64,10.71,5.58c.6-.59,2.54-2.63,3-3.27l-.62-.55a8.83,8.83,0,0,1-2.64,1.64c-.83.3-1.25.25-2.42-.36-.14-.07-1.8-.93-1.81-1-1.3-.71-1.31-1.13-.58-2.53l4.88-9.37c1-2,1.34-1.94,3.27-1.17l.34-.64-6.17-3.22Z"/><path class="cls-1" d="M107.85,233.52A8.66,8.66,0,0,0,97,239.78a8.45,8.45,0,0,0,6,10.68c4.6,1.29,9.19-1,10.7-6.42A8.36,8.36,0,0,0,107.85,233.52Zm3,10.51c-1.35,4.83-4.26,6.44-7.28,5.59-3.55-1-5.14-5.13-3.84-9.78s4.52-6.32,7.32-5.53C110.36,235.23,112.36,238.78,110.89,244Z"/><path class="cls-1" d="M152.32,242.51c2.27.2,3,2,3.23,3.73l.82-.09c-.06-1.7-.06-2.82-.08-3.76a23.22,23.22,0,0,0-3.51-.75c-3.41-.31-5.43,1.57-5.65,4.05-.26,2.95,2.21,4.45,3.81,5.5,1.9,1.24,3.16,2.24,3,4.18a2.87,2.87,0,0,1-3.38,2.8c-2.66-.24-3.58-2.77-3.88-4.41l-.82.13c.07,1.24.22,3.39.34,4.05a13,13,0,0,0,3.92,1.15c3.33.3,5.85-1.66,6.1-4.4.26-2.92-2-4.33-4-5.54s-3.11-2.24-2.95-4.1A2.63,2.63,0,0,1,152.32,242.51Z"/><path class="cls-1" d="M201.2,256.55c-.51.73-.75,1-2.33,1.11l-2.41.2c-1.29.08-1.88,0-2-1.84l-.42-5.15,2.84-.23c1.87-.16,2.1.08,2.59,1.92l.8-.07-.44-5.33-.8.07c-.17,1.78-.27,2.18-2.21,2.34l-2.87.24-.47-5.72c-.07-.75,0-.83.78-.9l2.46-.2c1.55-.13,2.16,0,2.65.82a8.81,8.81,0,0,1,.94,1.9l.76-.19c-.21-1.36-.48-3.3-.56-3.94-.31,0-1.31.16-3.75.36l-7.92.66.06.72c2,0,2.26.13,2.45,2.43l.84,10.22c.18,2.13,0,2.37-2.37,2.76l.06.72,12.57-1c.2-.8.68-3.52.78-4.21l-.8-.14A11.07,11.07,0,0,1,201.2,256.55Z"/><path class="cls-1" d="M254.33,243.62l-2.85-9.55c-.55-1.73-.34-2,1.74-2.9l-.2-.7-4.37,1.25-2.29,14.35L237.22,235l-4.35,1.24.2.7c2.26-.43,2.63-.08,2.9,1.25,2,9.3,2.2,10.2,2.36,11.34.19,1.41-.33,1.88-1.73,2.44l.2.7,5.92-1.69-.21-.7c-1.74.31-2.42.29-2.85-1.1-.14-.48-.68-2.45-2.76-11.31,3.2,4,8,10,9.48,12.06l.65-.19c.25-2.45,1.5-10.53,2.23-15.68l2.9,10.19c.79,2.66.76,2.83-1.23,3.62l.2.7,6.64-1.91-.2-.7C255.3,246.37,255.19,246.27,254.33,243.62Z"/><path class="cls-1" d="M298.85,223.31a10.43,10.43,0,0,1-.09,2.76c-.18.87-.29,1.2-1.68,2L295,229.18c-1.16.6-1.73.74-2.6-.86l-2.47-4.54,2.51-1.36c1.64-.9,1.94-.77,3.13.71l.71-.38-2.56-4.7-.7.38c.57,1.7.64,2.11-1.07,3l-2.53,1.38-2.75-5c-.36-.66-.35-.76.36-1.14l2.16-1.18c1.37-.75,2-.87,2.76-.32a8.83,8.83,0,0,1,1.63,1.36l.62-.49c-.75-1.15-1.77-2.81-2.11-3.37-.26.17-1.14.68-3.28,1.84l-7,3.81.35.63c1.8-.77,2.11-.79,3.22,1.24l4.9,9c1,1.87,1,2.16-1.06,3.47l.35.64,11.08-6c-.14-.81-.81-3.5-1-4.16Z"/><path class="cls-1" d="M269.1,184V109.4L251.91,98.73v83.46c0,10.18-5.6,12.47-5.6,12.47l14.26,4.84c9.67,1.27,19.85-4.08,19.85-4.08C276.86,193.9,269.1,184,269.1,184Z"/><polygon class="cls-1" points="201 104.7 173.26 132.04 146.02 105.2 146.02 126.19 173.26 153.42 201 125.68 201 104.7"/><path class="cls-1" d="M129.48,58.73,94.09,82.87,80.24,91.05l-3.33-4.11L37.07,31.49C33.35,26,39.28,15.4,42.21,10.8A1.45,1.45,0,0,0,41,8.58H28.17C8.82,11.13,9.07,32.26,9.07,32.26V146.8a8.72,8.72,0,0,1-8.91,5.6c-1.78,6.37,11.46,6.11,11.46,6.11,4.58-4.58,27.49-13,27.49-13,4.84-.25,7.38-6.62,7.38-6.62-6.11,1.28-14-5.85-14-5.85V49.57l44.4,56.06,29.56-18.36h0l17.43-11v117.1c-1.79,19.6-8.4,29.52-8.4,29.52h23.8A2.92,2.92,0,0,0,142.2,220V77.31c-.76-14,1.28-19.34,1.28-19.34C139.15,54.91,129.48,58.73,129.48,58.73Z"/><path class="cls-1" d="M94.09,182.19V99.44L76.91,110.11V184s-7.76,9.93-11.33,11.45c0,0,10.19,5.35,19.86,4.08l14.25-4.84S94.09,192.37,94.09,182.19Z"/><path class="cls-1" d="M157.24,28.28c-.55,1-1.83,2.19-2.29,3.34h10.8a.14.14,0,0,0,.11-.22l-1.93-3a.11.11,0,0,1,0-.08V11.54a.14.14,0,0,1,.25-.09l8,8.33.25.31,1.13-1.24,7.08-7.4a.14.14,0,0,1,.24.09V28.33a.11.11,0,0,1,0,.08l-1.94,3a.14.14,0,0,0,.12.22h10.33l-1.92-3.43a.15.15,0,0,1-.14-.14V4.3a.11.11,0,0,1,0-.08l2-2.64a.14.14,0,0,0,0-.2c-1.05-.61-8-4.24-12.28,3.51L172.49,13h-.25l-4.52-8.09c-4.23-7.75-11.23-4.12-12.27-3.51a.13.13,0,0,0,0,.2l2,2.64a.11.11,0,0,1,0,.08V28.05a.16.16,0,0,1-.14.14C157,28.19,157.5,28.23,157.24,28.28Z"/><circle class="cls-1" cx="31.47" cy="207.64" r="3.05"/><circle class="cls-1" cx="317.84" cy="206.88" r="3.05"/><path class="cls-1" d="M347.21,152.4a8.72,8.72,0,0,1-8.91-5.6V32.26s.25-21.13-19.09-23.68H306.38a1.45,1.45,0,0,0-1.22,2.22C308.09,15.4,314,26,310.3,31.49L269.1,88.84l-2.31,2.21-8.32-5-6.56-4.09-34-23.21s-9.67-3.82-14-.76c0,0,2,5.34,1.28,19.34V220a2.92,2.92,0,0,0,2.92,2.92h23.8s-6.61-9.92-8.4-29.52V76.29l28.42,17.92v0l18.5,11.48,44.47-56.15v83.49s-7.89,7.13-14,5.85c0,0,2.54,6.37,7.38,6.62,0,0,22.91,8.4,27.49,13C335.75,158.51,349,158.77,347.21,152.4Z"/><path class="cls-1" d="M74.16,39l2.75-1.24V79.89l4.31,6L94.09,77.6V43.71a28.27,28.27,0,0,1,11.46-20.36l67.2,47.24V71l.25-.18.26.18v-.36l67.2-47.24a28.24,28.24,0,0,1,11.45,20.36V76.94l13.9,8.94,3.29-4.58V37.73L271.85,39a3,3,0,0,0,4.25-2.39l-14.77-12c-19.6-18.07-25.45-16.8-25.45-16.8L173,60.05,110.13,7.82s-5.85-1.27-25.45,16.8l-14.77,12A3,3,0,0,0,74.16,39Z"/></g></g></svg>